<svg width="1440" height="900" viewBox="0 0 1440 900" fill="none" xmlns="http://www.w3.org/2000/svg" role="img" aria-labelledby="title desc">
  <title id="title">Pulse AI dashboard preview</title>
  <desc id="desc">A premium dashboard preview with sidebar navigation, analytics cards, charts, recent chats, documents, and notifications.</desc>
  <rect width="1440" height="900" rx="42" fill="#F8F4EC"/>
  <circle cx="1220" cy="120" r="280" fill="#E9A24C" fill-opacity="0.14"/>
  <circle cx="120" cy="760" r="260" fill="#D7B98E" fill-opacity="0.16"/>
  <rect x="48" y="48" width="1344" height="804" rx="36" fill="#FFFDF8" stroke="rgba(31,31,31,0.08)" stroke-width="2"/>
  <rect x="78" y="80" width="238" height="740" rx="28" fill="#1F1F1F"/>
  <rect x="104" y="112" width="46" height="46" rx="14" fill="#E9A24C"/>
  <text x="164" y="143" fill="white" font-family="Inter, Arial, sans-serif" font-size="20" font-weight="800">Pulse AI</text>
  <g fill="rgba(255,255,255,0.72)" font-family="Inter, Arial, sans-serif" font-size="14" font-weight="700">
    <text x="112" y="226">Dashboard</text>
    <text x="112" y="282">AI Chat</text>
    <text x="112" y="338">Documents</text>
    <text x="112" y="394">Analytics</text>
    <text x="112" y="450">Settings</text>
  </g>
  <rect x="96" y="202" width="194" height="42" rx="14" fill="rgba(233,162,76,0.16)"/>
  <rect x="354" y="82" width="1004" height="92" rx="28" fill="#F8F4EC"/>
  <text x="392" y="122" fill="#1F1F1F" font-family="Inter, Arial, sans-serif" font-size="28" font-weight="900">Workspace Overview</text>
  <text x="392" y="150" fill="#777777" font-family="Inter, Arial, sans-serif" font-size="15" font-weight="600">Recent chats, documents, analytics, AI usage, and activity in one production-style view.</text>
  <rect x="1164" y="108" width="150" height="42" rx="16" fill="#1F1F1F"/>
  <text x="1200" y="135" fill="white" font-family="Inter, Arial, sans-serif" font-size="14" font-weight="800">New chat</text>
  <g>
    <rect x="354" y="202" width="232" height="138" rx="26" fill="white" stroke="rgba(31,31,31,0.06)"/>
    <rect x="616" y="202" width="232" height="138" rx="26" fill="white" stroke="rgba(31,31,31,0.06)"/>
    <rect x="878" y="202" width="232" height="138" rx="26" fill="white" stroke="rgba(31,31,31,0.06)"/>
    <rect x="1140" y="202" width="218" height="138" rx="26" fill="white" stroke="rgba(31,31,31,0.06)"/>
    <text x="384" y="246" fill="#999" font-family="Inter, Arial, sans-serif" font-size="13" font-weight="800">AI usage</text>
    <text x="646" y="246" fill="#999" font-family="Inter, Arial, sans-serif" font-size="13" font-weight="800">Documents</text>
    <text x="908" y="246" fill="#999" font-family="Inter, Arial, sans-serif" font-size="13" font-weight="800">Messages</text>
    <text x="1170" y="246" fill="#999" font-family="Inter, Arial, sans-serif" font-size="13" font-weight="800">Notifications</text>
    <text x="384" y="296" fill="#1F1F1F" font-family="Inter, Arial, sans-serif" font-size="40" font-weight="900">24.8k</text>
    <text x="646" y="296" fill="#1F1F1F" font-family="Inter, Arial, sans-serif" font-size="40" font-weight="900">186</text>
    <text x="908" y="296" fill="#1F1F1F" font-family="Inter, Arial, sans-serif" font-size="40" font-weight="900">3.2k</text>
    <text x="1170" y="296" fill="#1F1F1F" font-family="Inter, Arial, sans-serif" font-size="40" font-weight="900">12</text>
  </g>
  <rect x="354" y="372" width="632" height="286" rx="30" fill="white" stroke="rgba(31,31,31,0.06)"/>
  <text x="390" y="420" fill="#1F1F1F" font-family="Inter, Arial, sans-serif" font-size="20" font-weight="900">AI Usage Trend</text>
  <path d="M400 584 C470 510 520 530 592 478 C664 426 724 492 792 440 C860 388 902 416 948 378" stroke="#E9A24C" stroke-width="8" stroke-linecap="round" fill="none"/>
  <path d="M400 618 C470 558 532 572 604 526 C680 476 738 548 810 502 C870 466 914 478 948 452" stroke="#1F1F1F" stroke-opacity="0.22" stroke-width="8" stroke-linecap="round" fill="none"/>
  <rect x="390" y="454" width="560" height="1" fill="rgba(31,31,31,0.06)"/>
  <rect x="390" y="518" width="560" height="1" fill="rgba(31,31,31,0.06)"/>
  <rect x="390" y="582" width="560" height="1" fill="rgba(31,31,31,0.06)"/>
  <rect x="1016" y="372" width="342" height="286" rx="30" fill="white" stroke="rgba(31,31,31,0.06)"/>
  <text x="1052" y="420" fill="#1F1F1F" font-family="Inter, Arial, sans-serif" font-size="20" font-weight="900">Recent Activity</text>
  <g font-family="Inter, Arial, sans-serif" font-size="14" font-weight="700" fill="#666">
    <circle cx="1064" cy="470" r="8" fill="#E9A24C"/><text x="1088" y="475">New chat created</text>
    <circle cx="1064" cy="520" r="8" fill="#1F1F1F"/><text x="1088" y="525">Document analyzed</text>
    <circle cx="1064" cy="570" r="8" fill="#D7B98E"/><text x="1088" y="575">Usage report updated</text>
    <circle cx="1064" cy="620" r="8" fill="#E9A24C"/><text x="1088" y="625">Notification delivered</text>
  </g>
  <rect x="354" y="688" width="1004" height="132" rx="30" fill="white" stroke="rgba(31,31,31,0.06)"/>
  <text x="390" y="736" fill="#1F1F1F" font-family="Inter, Arial, sans-serif" font-size="20" font-weight="900">Recent Documents</text>
  <rect x="390" y="762" width="910" height="18" rx="9" fill="rgba(31,31,31,0.06)"/>
  <rect x="390" y="792" width="720" height="18" rx="9" fill="rgba(233,162,76,0.18)"/>
</svg>
